<svg version="1" xmlns="http://www.w3.org/2000/svg" width="682.667" height="682.667" viewBox="0 0 512.000000 512.000000"><path d="M8 170.7c0 .5.9 3.9 1.9 7.8 1.8 6.6 5 18.4 8.6 32 .9 3.3 1.8 6.7 2 7.5.2.8 5.6 21.1 12 45s11.8 44.2 12 45c.2.8 2.2 8.6 4.6 17.3l4.2 15.7 26.6-.2 26.5-.3 1.8-6.5c1-3.6 1.9-7.4 2.2-8.5.4-1.9 7-28.1 20.2-79.5 3.1-11.8 6-23.2 6.5-25.4.6-2.1 1.2-3.6 1.5-3.4.3.4 15.4 57.3 16.9 63.8.2.8 2.2 8.7 4.5 17.5 3.9 14.8 5.8 22.5 6.4 25 .4 1.6 2.5 9.7 3.7 13.7l1 3.8h53.7l.7-3.8c.5-2 1-4.2 1.1-4.7.5-1.6 9.2-34.1 12.3-46 1.6-6.1 4.2-15.5 5.6-21 1.5-5.5 2.9-10.7 3.1-11.5 1-4.3 8.6-32.5 8.8-32.8.2-.1 1.7 5.1 3.4 11.5 4.6 16.9 16.7 62.5 20.8 77.8 1.8 7.1 4.4 16.8 5.6 21.5l2.3 8.5 26.6.3 26.7.2.5-2.2c.2-1.3 3.7-14.9 7.7-30.3 3.9-15.4 7.3-28.7 7.5-29.5.2-.8 3.4-13.2 7.1-27.5 3.7-14.3 7.1-27.9 7.6-30.3 1.1-4.6 2.3-4.8 3.1-.5.2 1.6 1.4 6.2 2.5 10.3 1.1 4.1 4.3 16.3 7.1 27s5.5 21.3 6.2 23.5c.6 2.2 1.3 4.9 1.4 6 .2 1.1 2.7 10.8 5.5 21.5 2.9 10.7 5.4 20.5 5.6 21.7.2 1.2.8 3.3 1.3 4.5.9 2.5 1.1 3.2 1.1 4.8 0 .6 9.6 1 26.9 1h26.9l2.2-8.1c1.2-4.5 2.3-9 2.6-10 .5-2.2.4-1.8 4.9-18.4 1.9-7.2 3.7-13.9 4-15 .2-1.1 2.2-8.8 4.5-17 2.2-8.3 4.2-15.9 4.5-17 .2-1.1 1.8-7 3.4-13 9.7-35.6 19.1-71.3 19.1-72.1 0-.2-10.5-.4-23.4-.4h-23.4l-1.1 4.7c-.6 2.7-1.3 5.7-1.5 6.8-.7 3.6-5.7 27.6-9.2 44.4-1.9 9-3.7 17.8-4 19.5-.3 1.7-1 5.1-1.5 7.6-1.5 6.5-1.4 6-5.3 24.9-2 9.5-3.9 18.5-4.3 20-.7 2.6-.7 2.5-1.5-.9-.5-1.9-1.1-4.6-1.4-6-.3-1.4-2.1-8.8-4-16.5-2-7.7-3.7-14.7-3.9-15.5-.4-2.1-3.6-15.3-10.1-42-3-12.4-6.6-27.2-8-33-1.4-5.8-2.7-11.3-3-12.3-.5-1.6-2.6-1.7-24.9-1.7-22.3 0-24.4.1-24.9 1.7-.2 1-3.7 15.1-7.6 31.3-13.6 56.8-21 87.5-22.2 91.8-1.2 4.8-2.2 4.2-3.2-1.8-.3-1.9-2.4-12.3-4.6-23-2.3-10.7-4.7-22.7-5.5-26.5-.8-3.9-1.6-7.9-1.9-9-.6-2.8-8.7-42.5-9.2-45-.2-1.1-.6-3.1-.9-4.5-2-9.2-2.7-12.7-2.8-13.8 0-1-7.3-1.2-34.6-1l-34.6.3-1.1 5.5c-.6 3-1.9 8.9-2.7 13-.9 4.1-1.8 8.6-2.1 10-.3 1.4-.7 3.6-1 5-.3 1.4-1 4.7-1.6 7.5-1.2 6-1.1 5.1-5 24.5-1.8 8.5-3.3 16.2-3.5 17-.8 3.2-4.5 21.4-4.9 23.7-.3 1.3-1.5 6.8-2.7 12.3-2.1 9.6-3.3 12.2-3.6 8-.1-1.1-1.8-8.4-3.8-16.2-2-7.9-3.8-15-4-15.8-.2-.8-.9-3.8-1.5-6.5-.6-2.8-1.3-5.7-1.5-6.5-.2-.8-2.6-11-5.5-22.5-2.8-11.6-6.7-27.5-8.6-35.5-1.9-8-4-16.6-4.6-19.3l-1.2-4.7-24.5.2-24.5.3-5.7 23.5c-3.2 12.9-6 25-6.4 26.9-.3 1.8-.7 3.6-1 4-.2.4-.6 1.8-.9 3.2-.2 1.3-3 12.7-6.1 25.4-3 12.6-6.8 28.1-8.2 34.2-2.4 10.1-3.8 13.6-4.1 10 0-.6-.3-2.5-.7-4.1-.3-1.7-2.9-13.8-5.6-27-4.6-22-6.1-29.5-7.5-36.6-.3-1.4-2.3-10.9-4.4-21.2-2.2-10.3-4.2-19.9-4.5-21.5-.2-1.5-.7-3.9-1-5.3-.2-1.4-.7-3.9-1.1-5.5-1.4-7.1 1-6.5-25.5-6.5-13.1 0-23.9.3-23.9.7z"/></svg>